<svg width="1190" height="876" viewBox="0 0 1190 876" fill="none" xmlns="http://www.w3.org/2000/svg">
<g clip-path="url(#clip0_142_6023)">
<rect width="1190" height="876" fill="#E9EBEA"/>
<path fill-rule="evenodd" clip-rule="evenodd" d="M834.46 952.809C871.096 951.809 909.462 962.751 943.111 948.227C976.803 933.685 987.79 887.635 1021.1 872.249C1080.16 844.976 1159.87 868.989 1208.42 825.699C1252.17 786.688 1268.6 717.439 1259.71 659.498C1250.79 601.383 1190.8 566.35 1160.86 515.747C1131.25 465.689 1130.22 396.065 1083.43 361.517C1036.68 326.995 969.334 348.633 913.361 332.996C853.422 316.251 799.764 244.589 741.306 265.936C678.94 288.71 686.896 388.834 637.862 433.599C595.851 471.951 497.111 446.274 483.316 501.46C467.045 566.552 582.13 610.235 576.984 677.132C572.054 741.21 431.872 767.835 458.318 826.41C486.712 889.3 597.946 831.203 660.089 861.199C694.198 877.663 689.606 936.618 723.136 954.233C756.352 971.684 796.953 953.833 834.46 952.809Z" fill="url(#paint0_linear_142_6023)"/>
<rect width="1190" height="876" fill="white" fill-opacity="0.3"/>
</g>
<defs>
<linearGradient id="paint0_linear_142_6023" x1="1262.04" y1="611.926" x2="455" y2="611.926" gradientUnits="userSpaceOnUse">
<stop stop-color="#FFD700"/>
<stop offset="1" stop-color="#FFD700" stop-opacity="0"/>
</linearGradient>
<clipPath id="clip0_142_6023">
<rect width="1190" height="876" fill="white"/>
</clipPath>
</defs>
</svg>
